# xmcd
#
# Track frame offsets: 
#        175
#        15282
#        32520
#        57207
#        69897
#        81832
#        100290
#        116335
#        126595
#        145920
#        176030
#        189095
#        206397
#
# Disc length: 2917 seconds
#
# Revision: 1
# Processed by: cddbd v1.5.2PL0 Copyright (c) Steve Scherf et al.
# Submitted via: ExactAudioCopyFreeDBPlugin 1.0
#
DISCID=a40b630d
DTITLE=Waso - Si jamais tu t'ennuies
DYEAR=1992
DGENRE=Jazz
TTITLE0=Invitation
TTITLE1=A moi de payer
TTITLE2=Déception
TTITLE3=Het verdriet van België
TTITLE4=Tschawo
TTITLE5=Holdfény-Szerenàd
TTITLE6=Devel
TTITLE7=Tu Djaial
TTITLE8=Mon pote le gitan
TTITLE9=Les fenêtres de Moscou
TTITLE10=Tristesse
TTITLE11=Altesse
TTITLE12=The Harry Lime theme
EXTD=
EXTT0=
EXTT1=
EXTT2=
EXTT3=
EXTT4=
EXTT5=
EXTT6=
EXTT7=
EXTT8=
EXTT9=
EXTT10=
EXTT11=
EXTT12=
PLAYORDER=
